<?xml version="1.0" encoding="utf-8"?>
<!-- Generator: Adobe Illustrator 15.0.0, SVG Export Plug-In  -->
<!DOCTYPE svg PUBLIC "-//W3C//DTD SVG 1.1//EN" "http://www.w3.org/Graphics/SVG/1.1/DTD/svg11.dtd" [
	<!ENTITY ns_flows "http://ns.adobe.com/Flows/1.0/">
]>
<svg version="1.1"
	 xmlns="http://www.w3.org/2000/svg" xmlns:xlink="http://www.w3.org/1999/xlink" xmlns:a="http://ns.adobe.com/AdobeSVGViewerExtensions/3.0/"
	 x="0px" y="0px" width="1000px" height="396px" viewBox="-10.112 -25.057 1000 396"
	 overflow="visible" enable-background="new -10.112 -25.057 1000 396" xml:space="preserve">
<defs>
</defs>
<path id="path73_1_" d="M974.397,0.359H743.883V78.87h67.397v270.666H907V78.87h67.397V0.359z M720.939,349.177H625.22V0.359h95.719
	V349.177z M609.087,349.177H502.614l-126.55-135.871v-77.794L498.67,0h109.7L467.123,175.665L609.087,349.177z"/>
<path id="path79_1_" fill="#32A189" d="M80.303,127.984c-18.283,22.227-34.057,46.605-46.246,72.775l319.063,148.418L80.303,127.984
	z"/>
<path id="path81_1_" fill="#32A189" d="M353.121,349.177L204.344,32.624c-26.529,12.188-50.907,27.246-73.134,45.171
	L353.121,349.177L353.121,349.177z"/>
<path id="path83_1_" d="M353.121,349.177l0.358-348.818c-1.076,0-1.793,0-2.868,0c-28.321,0-55.926,3.585-82.455,10.038
	L353.121,349.177L353.121,349.177z"/>
<path id="path89_1_" fill="#32A189" d="M11.113,263.855C3.943,291.101,0.358,319.781,0,349.177h353.121L11.113,263.855z"/>
</svg>
